M48
;Layer_Color=9474304
;FILE_FORMAT=2:5
INCH,TZ
;TYPE=PLATED
T1F00S00C0.04331
T2F00S00C0.05118
T3F00S00C0.06500
%
T01
X157402Y-45000
X167402
Y-35000
X157402
Y-25000
X167402
Y-15000
X157402
Y-5000
X167402
Y5000
X157402
Y15000
X167402
Y25000
X157402
Y35000
X167402
Y45000
X157402
T02
X127953Y-49370
Y-29370
Y29370
Y49370
T03
X7367Y-52802
X21767
Y-29180
X7367
Y29875
X21767
Y53497
X7367
M30
