G04*
G04 #@! TF.GenerationSoftware,Altium Limited,Altium Designer,18.1.9 (240)*
G04*
G04 Layer_Color=65535*
%FSLAX25Y25*%
%MOIN*%
G70*
G01*
G75*
%ADD10C,0.01968*%
%ADD11C,0.00787*%
%ADD12C,0.00500*%
%ADD13C,0.00600*%
%ADD14C,0.00984*%
%ADD15R,0.02165X0.13386*%
%ADD16R,0.03090X0.10000*%
D10*
X82644Y59252D02*
X81809Y59734D01*
Y58770D01*
X82644Y59252D01*
X82643Y-45079D02*
X81808Y-44597D01*
Y-45561D01*
X82643Y-45079D01*
X72013Y12598D02*
X71178Y13081D01*
Y12116D01*
X72013Y12598D01*
Y-26772D02*
X71178Y-26289D01*
Y-27254D01*
X72013Y-26772D01*
D11*
X112008Y59370D02*
X143898D01*
X112008Y19370D02*
X143898D01*
X112008D02*
Y59370D01*
X143898Y19370D02*
Y59370D01*
X109252Y32086D02*
X112008Y29331D01*
X109252Y26575D02*
X112008Y29331D01*
X109252Y26575D02*
Y32086D01*
X86024Y13386D02*
X100984D01*
X86024Y25984D02*
X100984D01*
X90749Y58858D02*
X99016D01*
X90749Y45472D02*
X99016D01*
X90749D02*
Y58858D01*
X52558Y30117D02*
X67519D01*
X52558Y42716D02*
X67519D01*
X90748Y-45472D02*
X99016D01*
X90748Y-58858D02*
X99016D01*
X90748D02*
Y-45472D01*
X52559Y-42717D02*
X67520D01*
X52559Y-30118D02*
X67520D01*
X86024Y-25984D02*
X100984D01*
X86024Y-13386D02*
X100984D01*
X109252Y-52165D02*
Y-46654D01*
Y-52165D02*
X112008Y-49410D01*
X109252Y-46654D02*
X112008Y-49410D01*
X143898Y-59370D02*
Y-19370D01*
X112008Y-59370D02*
Y-19370D01*
Y-59370D02*
X143898D01*
X112008Y-19370D02*
X143898D01*
X52559Y45866D02*
X67520D01*
X52559Y58465D02*
X67520D01*
X86024Y29134D02*
X100984D01*
X86024Y41732D02*
X100984D01*
X86024Y-41732D02*
X100984D01*
X86024Y-29134D02*
X100984D01*
X52559Y-58465D02*
X67520D01*
X52559Y-45866D02*
X67520D01*
X54528Y12992D02*
X62795D01*
X54528Y26378D02*
X62795D01*
Y12992D02*
Y26378D01*
X54528Y-26378D02*
X62795D01*
X54528Y-12992D02*
X62795D01*
Y-26378D02*
Y-12992D01*
D12*
X143995Y-65079D02*
Y65078D01*
X179822D01*
Y-65079D02*
Y65078D01*
X143995Y-65079D02*
X179822D01*
X143995D02*
Y65078D01*
X179822D01*
Y-65079D02*
Y65078D01*
X143995Y-65079D02*
X179822D01*
D13*
X40551Y32835D02*
X42559D01*
X28307D02*
X30315D01*
X28307Y49843D02*
X30315D01*
X40551D02*
X42559D01*
X28307Y32835D02*
Y49843D01*
X42559Y32835D02*
Y49843D01*
X28308Y-32835D02*
X30316D01*
X40552D02*
X42560D01*
X40552Y-49843D02*
X42560D01*
X28308D02*
X30316D01*
X42560D02*
Y-32835D01*
X28308Y-49843D02*
Y-32835D01*
D14*
X169902Y-51000D02*
Y-49360D01*
Y-50180D01*
X164982D01*
X165802Y-51000D01*
X159402Y53780D02*
Y50500D01*
X156122Y53780D01*
X155302D01*
X154482Y52960D01*
Y51320D01*
X155302Y50500D01*
Y55420D02*
X154482Y56240D01*
Y57880D01*
X155302Y58700D01*
X158582D01*
X159402Y57880D01*
Y56240D01*
X158582Y55420D01*
X155302D01*
X112205Y10827D02*
Y15746D01*
X114665D01*
X115484Y14927D01*
Y13287D01*
X114665Y12467D01*
X112205D01*
X120404Y10827D02*
X117124D01*
X120404Y14107D01*
Y14927D01*
X119584Y15746D01*
X117944D01*
X117124Y14927D01*
X112205Y-15748D02*
Y-10828D01*
X114665D01*
X115484Y-11648D01*
Y-13288D01*
X114665Y-14108D01*
X112205D01*
X117124Y-15748D02*
X118764D01*
X117944D01*
Y-10828D01*
X117124Y-11648D01*
X81693Y-7874D02*
Y-2954D01*
X84153D01*
X84973Y-3774D01*
Y-5414D01*
X84153Y-6234D01*
X81693D01*
X83333D02*
X84973Y-7874D01*
X86613Y-3774D02*
X87432Y-2954D01*
X89072D01*
X89892Y-3774D01*
Y-4594D01*
X89072Y-5414D01*
X89892Y-6234D01*
Y-7054D01*
X89072Y-7874D01*
X87432D01*
X86613Y-7054D01*
Y-6234D01*
X87432Y-5414D01*
X86613Y-4594D01*
Y-3774D01*
X87432Y-5414D02*
X89072D01*
X49409Y4921D02*
Y9841D01*
X51869D01*
X52689Y9021D01*
Y7381D01*
X51869Y6561D01*
X49409D01*
X51049D02*
X52689Y4921D01*
X54329Y9841D02*
X57608D01*
Y9021D01*
X54329Y5741D01*
Y4921D01*
X97441Y2953D02*
Y7872D01*
X99901D01*
X100721Y7052D01*
Y5413D01*
X99901Y4593D01*
X97441D01*
X99081D02*
X100721Y2953D01*
X105640Y7872D02*
X104000Y7052D01*
X102361Y5413D01*
Y3773D01*
X103181Y2953D01*
X104820D01*
X105640Y3773D01*
Y4593D01*
X104820Y5413D01*
X102361D01*
X62008Y-9843D02*
Y-4923D01*
X64468D01*
X65288Y-5743D01*
Y-7383D01*
X64468Y-8203D01*
X62008D01*
X63648D02*
X65288Y-9843D01*
X66927Y-5743D02*
X67747Y-4923D01*
X69387D01*
X70207Y-5743D01*
Y-6563D01*
X69387Y-7383D01*
X68567D01*
X69387D01*
X70207Y-8203D01*
Y-9023D01*
X69387Y-9843D01*
X67747D01*
X66927Y-9023D01*
X81693Y10825D02*
Y5906D01*
X84153D01*
X84973Y6725D01*
Y10005D01*
X84153Y10825D01*
X81693D01*
X89892D02*
X88253Y10005D01*
X86613Y8365D01*
Y6725D01*
X87432Y5906D01*
X89072D01*
X89892Y6725D01*
Y7545D01*
X89072Y8365D01*
X86613D01*
X97441Y-5907D02*
Y-10827D01*
X99901D01*
X100721Y-10007D01*
Y-6727D01*
X99901Y-5907D01*
X97441D01*
X105640D02*
X102361D01*
Y-8367D01*
X104000Y-7547D01*
X104820D01*
X105640Y-8367D01*
Y-10007D01*
X104820Y-10827D01*
X103181D01*
X102361Y-10007D01*
X139107Y2951D02*
X137467D01*
X138287D01*
Y-1149D01*
X137467Y-1969D01*
X136647D01*
X135827Y-1149D01*
X140746Y-1969D02*
X142386D01*
X141566D01*
Y2951D01*
X140746Y2131D01*
X35433Y54134D02*
Y59053D01*
X37893D01*
X38713Y58234D01*
Y56594D01*
X37893Y55774D01*
X35433D01*
X37073D02*
X38713Y54134D01*
X43633Y59053D02*
X40353D01*
Y56594D01*
X41993Y57414D01*
X42813D01*
X43633Y56594D01*
Y54954D01*
X42813Y54134D01*
X41173D01*
X40353Y54954D01*
X81693Y-984D02*
Y3935D01*
X84153D01*
X84973Y3115D01*
Y1476D01*
X84153Y656D01*
X81693D01*
X83333D02*
X84973Y-984D01*
X89072D02*
Y3935D01*
X86613Y1476D01*
X89892D01*
X97441Y-3937D02*
Y983D01*
X99901D01*
X100721Y163D01*
Y-1477D01*
X99901Y-2297D01*
X97441D01*
X99081D02*
X100721Y-3937D01*
X105640D02*
X102361D01*
X105640Y-657D01*
Y163D01*
X104820Y983D01*
X103181D01*
X102361Y163D01*
X36417Y-58858D02*
Y-53939D01*
X38877D01*
X39696Y-54759D01*
Y-56398D01*
X38877Y-57218D01*
X36417D01*
X38057D02*
X39696Y-58858D01*
X41336D02*
X42976D01*
X42156D01*
Y-53939D01*
X41336Y-54759D01*
X31496Y25589D02*
Y20669D01*
X33956D01*
X34776Y21489D01*
Y24769D01*
X33956Y25589D01*
X31496D01*
X38876Y20669D02*
Y25589D01*
X36416Y23129D01*
X39696D01*
X49409Y2951D02*
Y-1969D01*
X51869D01*
X52689Y-1149D01*
Y2131D01*
X51869Y2951D01*
X49409D01*
X54329Y2131D02*
X55149Y2951D01*
X56788D01*
X57608Y2131D01*
Y1311D01*
X56788Y491D01*
X55968D01*
X56788D01*
X57608Y-329D01*
Y-1149D01*
X56788Y-1969D01*
X55149D01*
X54329Y-1149D01*
X31497Y-21655D02*
Y-26575D01*
X33957D01*
X34776Y-25755D01*
Y-22475D01*
X33957Y-21655D01*
X31497D01*
X39696Y-26575D02*
X36416D01*
X39696Y-23295D01*
Y-22475D01*
X38876Y-21655D01*
X37236D01*
X36416Y-22475D01*
X62008Y1967D02*
Y-2953D01*
X64468D01*
X65288Y-2133D01*
Y1147D01*
X64468Y1967D01*
X62008D01*
X66927Y-2953D02*
X68567D01*
X67747D01*
Y1967D01*
X66927Y1147D01*
D15*
X91634Y52165D02*
D03*
X91634Y-52165D02*
D03*
X61910Y19685D02*
D03*
Y-19685D02*
D03*
D16*
X178277Y0D02*
D03*
M02*
