G04*
G04 #@! TF.GenerationSoftware,Altium Limited,Altium Designer,18.1.9 (240)*
G04*
G04 Layer_Physical_Order=2*
G04 Layer_Color=16711680*
%FSLAX25Y25*%
%MOIN*%
G70*
G01*
G75*
%ADD29C,0.09843*%
%ADD30C,0.12500*%
%ADD31R,0.06299X0.06299*%
%ADD32C,0.06299*%
G36*
X164463Y-11904D02*
X164453Y-12052D01*
X163791Y-12915D01*
X163374Y-13921D01*
X163232Y-15000D01*
X163374Y-16079D01*
X163791Y-17085D01*
X164453Y-17948D01*
X165317Y-18611D01*
X166322Y-19027D01*
X167402Y-19170D01*
Y-20831D01*
X166322Y-20973D01*
X165317Y-21389D01*
X164453Y-22052D01*
X163791Y-22915D01*
X163374Y-23921D01*
X163232Y-25000D01*
X163374Y-26079D01*
X163791Y-27085D01*
X164453Y-27948D01*
X165317Y-28611D01*
X166322Y-29027D01*
X167402Y-29169D01*
Y-30830D01*
X166322Y-30973D01*
X165317Y-31389D01*
X164453Y-32052D01*
X163791Y-32915D01*
X163374Y-33921D01*
X163232Y-35000D01*
X163374Y-36079D01*
X163791Y-37085D01*
X164453Y-37948D01*
X165317Y-38611D01*
X166322Y-39027D01*
X167402Y-39169D01*
Y-40866D01*
X163268D01*
Y-49134D01*
X167402D01*
Y-54246D01*
X161126Y-61024D01*
X141360Y-61024D01*
X140651Y-60314D01*
X140325Y-60097D01*
X139941Y-60020D01*
X30493D01*
X29528Y-59055D01*
Y-49016D01*
X24606Y-44291D01*
X4921Y-44291D01*
X1003Y-40374D01*
Y-18682D01*
X9843Y-9843D01*
X152559Y-9843D01*
X162402Y-9843D01*
X164463Y-11904D01*
D02*
G37*
G36*
X172244Y61024D02*
X177165Y56102D01*
X177165Y14764D01*
X172244Y9843D01*
X152437Y9843D01*
X10537Y9843D01*
X1003Y19376D01*
Y41068D01*
X4921Y44986D01*
X24606Y44986D01*
X29528Y49710D01*
Y59055D01*
X30493Y60020D01*
X139941D01*
X140325Y60097D01*
X140651Y60314D01*
X141360Y61024D01*
X172244D01*
D02*
G37*
%LPC*%
G36*
X127953Y-43436D02*
X126795Y-43550D01*
X125682Y-43888D01*
X124656Y-44436D01*
X123757Y-45174D01*
X123019Y-46073D01*
X122470Y-47099D01*
X122133Y-48212D01*
X122019Y-49370D01*
X122133Y-50528D01*
X122470Y-51641D01*
X123019Y-52667D01*
X123757Y-53566D01*
X124656Y-54304D01*
X125682Y-54852D01*
X126795Y-55190D01*
X127953Y-55304D01*
X129110Y-55190D01*
X130224Y-54852D01*
X131250Y-54304D01*
X132149Y-53566D01*
X132887Y-52667D01*
X133435Y-51641D01*
X133773Y-50528D01*
X133887Y-49370D01*
X133773Y-48212D01*
X133435Y-47099D01*
X132887Y-46073D01*
X132149Y-45174D01*
X131250Y-44436D01*
X130224Y-43888D01*
X129110Y-43550D01*
X127953Y-43436D01*
D02*
G37*
G36*
X157402Y49169D02*
X156322Y49027D01*
X155317Y48611D01*
X154453Y47948D01*
X153791Y47085D01*
X153374Y46079D01*
X153232Y45000D01*
X153374Y43921D01*
X153791Y42915D01*
X154453Y42052D01*
X155317Y41389D01*
X156322Y40973D01*
X157402Y40830D01*
X158481Y40973D01*
X159486Y41389D01*
X160350Y42052D01*
X161012Y42915D01*
X161429Y43921D01*
X161571Y45000D01*
X161429Y46079D01*
X161012Y47085D01*
X160350Y47948D01*
X159486Y48611D01*
X158481Y49027D01*
X157402Y49169D01*
D02*
G37*
G36*
Y39169D02*
X156322Y39027D01*
X155317Y38611D01*
X154453Y37948D01*
X153791Y37085D01*
X153374Y36079D01*
X153232Y35000D01*
X153374Y33921D01*
X153791Y32915D01*
X154453Y32052D01*
X155317Y31389D01*
X156322Y30973D01*
X157402Y30830D01*
X158481Y30973D01*
X159486Y31389D01*
X160350Y32052D01*
X161012Y32915D01*
X161429Y33921D01*
X161571Y35000D01*
X161429Y36079D01*
X161012Y37085D01*
X160350Y37948D01*
X159486Y38611D01*
X158481Y39027D01*
X157402Y39169D01*
D02*
G37*
G36*
X127953Y35304D02*
X126795Y35190D01*
X125682Y34852D01*
X124656Y34304D01*
X123757Y33566D01*
X123019Y32667D01*
X122470Y31641D01*
X122133Y30528D01*
X122019Y29370D01*
X122133Y28212D01*
X122470Y27099D01*
X123019Y26073D01*
X123757Y25174D01*
X124656Y24436D01*
X125682Y23888D01*
X126795Y23550D01*
X127953Y23436D01*
X129110Y23550D01*
X130224Y23888D01*
X131250Y24436D01*
X132149Y25174D01*
X132887Y26073D01*
X133435Y27099D01*
X133773Y28212D01*
X133887Y29370D01*
X133773Y30528D01*
X133435Y31641D01*
X132887Y32667D01*
X132149Y33566D01*
X131250Y34304D01*
X130224Y34852D01*
X129110Y35190D01*
X127953Y35304D01*
D02*
G37*
G36*
X157402Y29169D02*
X156322Y29027D01*
X155317Y28611D01*
X154453Y27948D01*
X153791Y27085D01*
X153374Y26079D01*
X153232Y25000D01*
X153374Y23921D01*
X153791Y22915D01*
X154453Y22052D01*
X155317Y21389D01*
X156322Y20973D01*
X157402Y20831D01*
X158481Y20973D01*
X159486Y21389D01*
X160350Y22052D01*
X161012Y22915D01*
X161429Y23921D01*
X161571Y25000D01*
X161429Y26079D01*
X161012Y27085D01*
X160350Y27948D01*
X159486Y28611D01*
X158481Y29027D01*
X157402Y29169D01*
D02*
G37*
G36*
Y19170D02*
X156322Y19027D01*
X155317Y18611D01*
X154453Y17948D01*
X153791Y17085D01*
X153374Y16079D01*
X153232Y15000D01*
X153374Y13921D01*
X153791Y12915D01*
X154453Y12052D01*
X155317Y11389D01*
X156322Y10972D01*
X157402Y10830D01*
X158481Y10972D01*
X159486Y11389D01*
X160350Y12052D01*
X161012Y12915D01*
X161429Y13921D01*
X161571Y15000D01*
X161429Y16079D01*
X161012Y17085D01*
X160350Y17948D01*
X159486Y18611D01*
X158481Y19027D01*
X157402Y19170D01*
D02*
G37*
%LPD*%
D29*
X127953Y29370D02*
D03*
Y49370D02*
D03*
Y-29370D02*
D03*
Y-49370D02*
D03*
D30*
X7367Y53497D02*
D03*
X21767D02*
D03*
Y29875D02*
D03*
X7367D02*
D03*
Y-52802D02*
D03*
X21767D02*
D03*
Y-29180D02*
D03*
X7367D02*
D03*
D31*
X167402Y-45000D02*
D03*
D32*
X157402D02*
D03*
X167402Y-35000D02*
D03*
X157402D02*
D03*
X167402Y-25000D02*
D03*
X157402D02*
D03*
X167402Y-15000D02*
D03*
X157402D02*
D03*
X167402Y-5000D02*
D03*
X157402D02*
D03*
X167402Y5000D02*
D03*
X157402D02*
D03*
X167402Y15000D02*
D03*
X157402D02*
D03*
X167402Y25000D02*
D03*
X157402D02*
D03*
X167402Y35000D02*
D03*
X157402D02*
D03*
X167402Y45000D02*
D03*
X157402D02*
D03*
M02*
