G04*
G04 #@! TF.GenerationSoftware,Altium Limited,Altium Designer,18.1.9 (240)*
G04*
G04 Layer_Color=32896*
%FSLAX25Y25*%
%MOIN*%
G70*
G01*
G75*
%ADD14C,0.00984*%
D14*
X36332Y32341D02*
X37972D01*
X37152D01*
Y28241D01*
X37972Y27421D01*
X38792D01*
X39612Y28241D01*
X31412Y32341D02*
X34692D01*
Y29881D01*
X33052Y30701D01*
X32232D01*
X31412Y29881D01*
Y28241D01*
X32232Y27421D01*
X33872D01*
X34692Y28241D01*
X36332Y55941D02*
X37972D01*
X37152D01*
Y51841D01*
X37972Y51021D01*
X38792D01*
X39612Y51841D01*
X32232Y51021D02*
Y55941D01*
X34692Y53481D01*
X31412D01*
X36332Y-26759D02*
X37972D01*
X37152D01*
Y-30859D01*
X37972Y-31679D01*
X38792D01*
X39612Y-30859D01*
X34692Y-27579D02*
X33872Y-26759D01*
X32232D01*
X31412Y-27579D01*
Y-28399D01*
X32232Y-29219D01*
X33052D01*
X32232D01*
X31412Y-30039D01*
Y-30859D01*
X32232Y-31679D01*
X33872D01*
X34692Y-30859D01*
X36332Y-50359D02*
X37972D01*
X37152D01*
Y-54459D01*
X37972Y-55279D01*
X38792D01*
X39612Y-54459D01*
X31412Y-55279D02*
X34692D01*
X31412Y-51999D01*
Y-51179D01*
X32232Y-50359D01*
X33872D01*
X34692Y-51179D01*
M02*
