G04*
G04 #@! TF.GenerationSoftware,Altium Limited,Altium Designer,18.1.9 (240)*
G04*
G04 Layer_Color=128*
%FSLAX25Y25*%
%MOIN*%
G70*
G01*
G75*
%ADD34C,0.00200*%
D34*
X125394Y29370D02*
X130512D01*
X127953Y26811D02*
Y31929D01*
X125394Y49370D02*
X130512D01*
X127953Y46811D02*
Y51929D01*
X125394Y-29370D02*
X130512D01*
X127953Y-31929D02*
Y-26811D01*
X125394Y-49370D02*
X130512D01*
X127953Y-51929D02*
Y-46811D01*
X4117Y53497D02*
X10617D01*
X7367Y50247D02*
Y56747D01*
X18517Y53497D02*
X25017D01*
X21767Y50247D02*
Y56747D01*
X18517Y29875D02*
X25017D01*
X21767Y26625D02*
Y33125D01*
X4117Y29875D02*
X10617D01*
X7367Y26625D02*
Y33125D01*
X4117Y-52802D02*
X10617D01*
X7367Y-56052D02*
Y-49552D01*
X18517Y-52802D02*
X25017D01*
X21767Y-56052D02*
Y-49552D01*
X18517Y-29180D02*
X25017D01*
X21767Y-32430D02*
Y-25930D01*
X4117Y-29180D02*
X10617D01*
X7367Y-32430D02*
Y-25930D01*
X165236Y-45000D02*
X169567D01*
X167402Y-47165D02*
Y-42835D01*
X155236Y-45000D02*
X159567D01*
X157402Y-47165D02*
Y-42835D01*
X165236Y-35000D02*
X169567D01*
X167402Y-37165D02*
Y-32835D01*
X155236Y-35000D02*
X159567D01*
X157402Y-37165D02*
Y-32835D01*
X165236Y-25000D02*
X169567D01*
X167402Y-27165D02*
Y-22835D01*
X155236Y-25000D02*
X159567D01*
X157402Y-27165D02*
Y-22835D01*
X165236Y-15000D02*
X169567D01*
X167402Y-17165D02*
Y-12835D01*
X155236Y-15000D02*
X159567D01*
X157402Y-17165D02*
Y-12835D01*
X165236Y-5000D02*
X169567D01*
X167402Y-7165D02*
Y-2835D01*
X155236Y-5000D02*
X159567D01*
X157402Y-7165D02*
Y-2835D01*
X165236Y5000D02*
X169567D01*
X167402Y2835D02*
Y7165D01*
X155236Y5000D02*
X159567D01*
X157402Y2835D02*
Y7165D01*
X165236Y15000D02*
X169567D01*
X167402Y12835D02*
Y17165D01*
X155236Y15000D02*
X159567D01*
X157402Y12835D02*
Y17165D01*
X165236Y25000D02*
X169567D01*
X167402Y22835D02*
Y27165D01*
X155236Y25000D02*
X159567D01*
X157402Y22835D02*
Y27165D01*
X165236Y35000D02*
X169567D01*
X167402Y32835D02*
Y37165D01*
X155236Y35000D02*
X159567D01*
X157402Y32835D02*
Y37165D01*
X165236Y45000D02*
X169567D01*
X167402Y42835D02*
Y47165D01*
X155236Y45000D02*
X159567D01*
X157402Y42835D02*
Y47165D01*
M02*
