G04*
G04 #@! TF.GenerationSoftware,Altium Limited,Altium Designer,18.1.9 (240)*
G04*
G04 Layer_Color=2752767*
%FSLAX25Y25*%
%MOIN*%
G70*
G01*
G75*
%ADD34C,0.00200*%
%ADD35C,0.00267*%
D34*
X127153Y28570D02*
Y30170D01*
X128753D01*
Y28570D01*
X127153D01*
Y48570D02*
Y50170D01*
X128753D01*
Y48570D01*
X127153D01*
Y-30170D02*
Y-28570D01*
X128753D01*
Y-30170D01*
X127153D01*
Y-50170D02*
Y-48570D01*
X128753D01*
Y-50170D01*
X127153D01*
X167402Y-45800D02*
X166602Y-44200D01*
X168202D01*
X167402Y-45800D01*
X157402D02*
X156602Y-44200D01*
X158202D01*
X157402Y-45800D01*
X167402Y-35800D02*
X166602Y-34200D01*
X168202D01*
X167402Y-35800D01*
X157402D02*
X156602Y-34200D01*
X158202D01*
X157402Y-35800D01*
X167402Y-25800D02*
X166602Y-24200D01*
X168202D01*
X167402Y-25800D01*
X157402D02*
X156602Y-24200D01*
X158202D01*
X157402Y-25800D01*
X167402Y-15800D02*
X166602Y-14200D01*
X168202D01*
X167402Y-15800D01*
X157402D02*
X156602Y-14200D01*
X158202D01*
X157402Y-15800D01*
X167402Y-5800D02*
X166602Y-4200D01*
X168202D01*
X167402Y-5800D01*
X157402D02*
X156602Y-4200D01*
X158202D01*
X157402Y-5800D01*
X167402Y4200D02*
X166602Y5800D01*
X168202D01*
X167402Y4200D01*
X157402D02*
X156602Y5800D01*
X158202D01*
X157402Y4200D01*
X167402Y14200D02*
X166602Y15800D01*
X168202D01*
X167402Y14200D01*
X157402D02*
X156602Y15800D01*
X158202D01*
X157402Y14200D01*
X167402Y24200D02*
X166602Y25800D01*
X168202D01*
X167402Y24200D01*
X157402D02*
X156602Y25800D01*
X158202D01*
X157402Y24200D01*
X167402Y34200D02*
X166602Y35800D01*
X168202D01*
X167402Y34200D01*
X157402D02*
X156602Y35800D01*
X158202D01*
X157402Y34200D01*
X167402Y44200D02*
X166602Y45800D01*
X168202D01*
X167402Y44200D01*
X157402D02*
X156602Y45800D01*
X158202D01*
X157402Y44200D01*
D35*
X8167Y53497D02*
X7614Y54258D01*
X6720Y53967D01*
Y53027D01*
X7614Y52736D01*
X8167Y53497D01*
X22567D02*
X22014Y54258D01*
X21120Y53967D01*
Y53027D01*
X22014Y52736D01*
X22567Y53497D01*
Y29875D02*
X22014Y30636D01*
X21120Y30345D01*
Y29405D01*
X22014Y29114D01*
X22567Y29875D01*
X8167D02*
X7614Y30636D01*
X6720Y30345D01*
Y29405D01*
X7614Y29114D01*
X8167Y29875D01*
Y-52802D02*
X7614Y-52042D01*
X6720Y-52332D01*
Y-53273D01*
X7614Y-53563D01*
X8167Y-52802D01*
X22567D02*
X22014Y-52042D01*
X21120Y-52332D01*
Y-53273D01*
X22014Y-53563D01*
X22567Y-52802D01*
Y-29180D02*
X22014Y-28420D01*
X21120Y-28710D01*
Y-29651D01*
X22014Y-29941D01*
X22567Y-29180D01*
X8167D02*
X7614Y-28420D01*
X6720Y-28710D01*
Y-29651D01*
X7614Y-29941D01*
X8167Y-29180D01*
M02*
