G04*
G04 #@! TF.GenerationSoftware,Altium Limited,Altium Designer,18.1.9 (240)*
G04*
G04 Layer_Color=8388736*
%FSLAX25Y25*%
%MOIN*%
G70*
G01*
G75*
%ADD20R,0.06115X0.14186*%
%ADD21R,0.09068X0.09855*%
%ADD22R,0.09855X0.09855*%
%ADD23C,0.10642*%
%ADD24C,0.13300*%
%ADD25R,0.07099X0.07099*%
%ADD26C,0.07099*%
D20*
X105217Y19685D02*
D03*
X81791D02*
D03*
X71751Y36417D02*
D03*
X48326D02*
D03*
X71752Y-36417D02*
D03*
X48327D02*
D03*
X105217Y-19685D02*
D03*
X81791D02*
D03*
X71752Y52165D02*
D03*
X48327D02*
D03*
X105217Y35433D02*
D03*
X81791D02*
D03*
X105217Y-35433D02*
D03*
X81791D02*
D03*
X71752Y-52165D02*
D03*
X48327D02*
D03*
D21*
X84843Y52165D02*
D03*
X102166D02*
D03*
X84842Y-52165D02*
D03*
X102165D02*
D03*
X68701Y19685D02*
D03*
X51378D02*
D03*
X68701Y-19685D02*
D03*
X51378D02*
D03*
D22*
X35433Y32480D02*
D03*
Y50197D02*
D03*
X35434Y-32480D02*
D03*
Y-50197D02*
D03*
D23*
X127953Y29370D02*
D03*
Y49370D02*
D03*
Y-29370D02*
D03*
Y-49370D02*
D03*
D24*
X7367Y53497D02*
D03*
X21767D02*
D03*
Y29875D02*
D03*
X7367D02*
D03*
Y-52802D02*
D03*
X21767D02*
D03*
Y-29180D02*
D03*
X7367D02*
D03*
D25*
X167402Y-45000D02*
D03*
D26*
X157402D02*
D03*
X167402Y-35000D02*
D03*
X157402D02*
D03*
X167402Y-25000D02*
D03*
X157402D02*
D03*
X167402Y-15000D02*
D03*
X157402D02*
D03*
X167402Y-5000D02*
D03*
X157402D02*
D03*
X167402Y5000D02*
D03*
X157402D02*
D03*
X167402Y15000D02*
D03*
X157402D02*
D03*
X167402Y25000D02*
D03*
X157402D02*
D03*
X167402Y35000D02*
D03*
X157402D02*
D03*
X167402Y45000D02*
D03*
X157402D02*
D03*
M02*
